<svg width="28" height="28" viewBox="0 0 28 28" fill="none" xmlns="http://www.w3.org/2000/svg">
<path d="M13.311 0.142184L1.06096 5.39218C0.295336 5.72031 -0.131227 6.54062 0.0383046 7.35C0.207836 8.15937 0.918773 8.75 1.75002 8.75V9.1875C1.75002 9.91484 2.33518 10.5 3.06252 10.5H24.9375C25.6649 10.5 26.25 9.91484 26.25 9.1875V8.75C27.0813 8.75 27.7977 8.16484 27.9617 7.35C28.1258 6.53515 27.6992 5.71484 26.9391 5.39218L14.6891 0.142184C14.2516 -0.043753 13.7485 -0.043753 13.311 0.142184ZM7.00002 12.25H3.50002V22.9852C3.46721 23.0016 3.4344 23.0234 3.40159 23.0453L0.776586 24.7953C0.136742 25.2219 -0.153102 26.0203 0.0711171 26.7586C0.295336 27.4969 0.97893 28 1.75002 28H26.25C27.0211 28 27.6992 27.4969 27.9235 26.7586C28.1477 26.0203 27.8633 25.2219 27.218 24.7953L24.593 23.0453C24.5602 23.0234 24.5274 23.007 24.4946 22.9852V12.25H21V22.75H18.8125V12.25H15.3125V22.75H12.6875V12.25H9.18752V22.75H7.00002V12.25ZM14 3.5C14.4642 3.5 14.9093 3.68437 15.2375 4.01256C15.5656 4.34075 15.75 4.78587 15.75 5.25C15.75 5.71413 15.5656 6.15924 15.2375 6.48743C14.9093 6.81562 14.4642 7 14 7C13.5359 7 13.0908 6.81562 12.7626 6.48743C12.4344 6.15924 12.25 5.71413 12.25 5.25C12.25 4.78587 12.4344 4.34075 12.7626 4.01256C13.0908 3.68437 13.5359 3.5 14 3.5Z" fill="white"/>
</svg>
