<svg width="49" height="49" viewBox="0 0 49 49" fill="none" xmlns="http://www.w3.org/2000/svg">
<path d="M47.6026 34.6251L36.8837 30.0313C36.4258 29.8362 35.9169 29.795 35.4336 29.9141C34.9503 30.0332 34.5187 30.3061 34.2039 30.6917L29.457 36.4914C22.0071 32.9788 16.0116 26.9834 12.499 19.5334L18.2988 14.7865C18.6851 14.4723 18.9585 14.0407 19.0777 13.5572C19.1968 13.0737 19.1552 12.5645 18.9591 12.1067L14.3653 1.38781C14.1501 0.894363 13.7694 0.491481 13.2889 0.248633C12.8085 0.0057855 12.2584 -0.0618066 11.7334 0.0575121L1.78011 2.35443C1.27399 2.4713 0.822434 2.75627 0.499134 3.16283C0.175834 3.56939 -0.000116589 4.07353 5.79608e-08 4.59296C5.79608e-08 29.1412 19.897 49 44.407 49C44.9266 49.0003 45.431 48.8245 45.8377 48.5012C46.2445 48.1778 46.5296 47.7262 46.6465 47.2199L48.9434 37.2666C49.062 36.7391 48.993 36.1867 48.7482 35.7046C48.5035 35.2225 48.0984 34.8408 47.6026 34.6251Z" fill="#FBF4E4" fill-opacity="0.7"/>
</svg>
