<svg width="38" height="50" viewBox="0 0 38 50" fill="none" xmlns="http://www.w3.org/2000/svg">
<path d="M16.5284 48.8765C11.4903 42.5907 -1.14441e-05 27.356 -1.14441e-05 18.7986C-1.14441e-05 8.42023 8.44588 0 18.8559 0C29.266 0 37.7119 8.42023 37.7119 18.7986C37.7119 27.356 26.2215 42.5907 21.1834 48.8765C19.9755 50.3745 17.7364 50.3745 16.5284 48.8765ZM18.8559 12.5324C17.189 12.5324 15.5903 13.1926 14.4115 14.3678C13.2328 15.5429 12.5706 17.1367 12.5706 18.7986C12.5706 20.4606 13.2328 22.0544 14.4115 23.2295C15.5903 24.4047 17.189 25.0649 18.8559 25.0649C20.5229 25.0649 22.1216 24.4047 23.3003 23.2295C24.479 22.0544 25.1412 20.4606 25.1412 18.7986C25.1412 17.1367 24.479 15.5429 23.3003 14.3678C22.1216 13.1926 20.5229 12.5324 18.8559 12.5324Z" fill="#B6B1A6"/>
</svg>
