<svg width="59" height="59" viewBox="0 0 59 59" fill="none" xmlns="http://www.w3.org/2000/svg">
<path d="M1.85527 29.984C-0.74903 31.4705 -0.507038 35.4346 2.27011 36.5869L18.4375 43.3281V55.2318C18.4375 57.3176 20.1199 59 22.2057 59C23.3234 59 24.3836 58.5045 25.098 57.6402L32.2426 49.0783L46.5201 55.0244C48.698 55.9348 51.2217 54.5059 51.5789 52.1781L58.9539 4.24064C59.1728 2.8463 58.5621 1.44044 57.3982 0.645326C56.2344 -0.149791 54.7133 -0.218932 53.4803 0.483998L1.85527 29.984ZM7.85898 32.9225L47.2115 10.4402L21.906 38.7188L22.0443 38.834L7.85898 32.9225ZM46.474 49.0207L27.276 41.0119L51.9476 13.4363L46.474 49.0207Z" fill="#B6B1A6"/>
</svg>
