<svg width="28" height="26" viewBox="0 0 28 26" fill="none" xmlns="http://www.w3.org/2000/svg">
<path d="M9.1875 3.375C8.46016 3.375 7.875 3.96016 7.875 4.6875V21.3125C7.875 21.7719 7.79844 22.2148 7.65078 22.625H24.0625C24.7898 22.625 25.375 22.0398 25.375 21.3125V4.6875C25.375 3.96016 24.7898 3.375 24.0625 3.375H9.1875ZM3.9375 25.25C1.76094 25.25 0 23.4891 0 21.3125V5.125C0 4.39766 0.585156 3.8125 1.3125 3.8125C2.03984 3.8125 2.625 4.39766 2.625 5.125V21.3125C2.625 22.0398 3.21016 22.625 3.9375 22.625C4.66484 22.625 5.25 22.0398 5.25 21.3125V4.6875C5.25 2.51094 7.01094 0.75 9.1875 0.75H24.0625C26.2391 0.75 28 2.51094 28 4.6875V21.3125C28 23.4891 26.2391 25.25 24.0625 25.25H3.9375ZM9.625 6.4375C9.625 5.71016 10.2102 5.125 10.9375 5.125H16.1875C16.9148 5.125 17.5 5.71016 17.5 6.4375V10.8125C17.5 11.5398 16.9148 12.125 16.1875 12.125H10.9375C10.2102 12.125 9.625 11.5398 9.625 10.8125V6.4375ZM20.5625 5.125H22.3125C23.0398 5.125 23.625 5.71016 23.625 6.4375C23.625 7.16484 23.0398 7.75 22.3125 7.75H20.5625C19.8352 7.75 19.25 7.16484 19.25 6.4375C19.25 5.71016 19.8352 5.125 20.5625 5.125ZM20.5625 9.5H22.3125C23.0398 9.5 23.625 10.0852 23.625 10.8125C23.625 11.5398 23.0398 12.125 22.3125 12.125H20.5625C19.8352 12.125 19.25 11.5398 19.25 10.8125C19.25 10.0852 19.8352 9.5 20.5625 9.5ZM10.9375 13.875H22.3125C23.0398 13.875 23.625 14.4602 23.625 15.1875C23.625 15.9148 23.0398 16.5 22.3125 16.5H10.9375C10.2102 16.5 9.625 15.9148 9.625 15.1875C9.625 14.4602 10.2102 13.875 10.9375 13.875ZM10.9375 18.25H22.3125C23.0398 18.25 23.625 18.8352 23.625 19.5625C23.625 20.2898 23.0398 20.875 22.3125 20.875H10.9375C10.2102 20.875 9.625 20.2898 9.625 19.5625C9.625 18.8352 10.2102 18.25 10.9375 18.25Z" fill="white"/>
</svg>
