<svg width="25" height="25" viewBox="0 0 25 25" fill="none" xmlns="http://www.w3.org/2000/svg">
<path d="M7.8125 17.9688C9.10645 17.9688 10.1562 19.0186 10.1562 20.3125V21.0938L13.6963 18.4375C14.1016 18.1348 14.5947 17.9688 15.1025 17.9688H21.875C22.3047 17.9688 22.6562 17.6172 22.6562 17.1875V3.125C22.6562 2.69531 22.3047 2.34375 21.875 2.34375H3.125C2.69531 2.34375 2.34375 2.69531 2.34375 3.125V17.1875C2.34375 17.6172 2.69531 17.9688 3.125 17.9688H7.8125ZM10.1562 24.0234L10.1465 24.0332L9.89746 24.2188L9.0625 24.8438C8.82812 25.0195 8.51074 25.0488 8.24219 24.917C7.97363 24.7852 7.8125 24.5166 7.8125 24.2188V23.1787V22.8662V22.8516V22.6562V20.3125H5.46875H3.125C1.40137 20.3125 0 18.9111 0 17.1875V3.125C0 1.40137 1.40137 0 3.125 0H21.875C23.5986 0 25 1.40137 25 3.125V17.1875C25 18.9111 23.5986 20.3125 21.875 20.3125H15.1025L10.1562 24.0234Z" fill="white"/>
</svg>
