<svg width="26" height="26" viewBox="0 0 26 26" fill="none" xmlns="http://www.w3.org/2000/svg">
<path d="M13 0C13.2336 0 13.4672 0.0507813 13.6805 0.147266L23.2426 4.20469C24.3598 4.67695 25.1926 5.77891 25.1875 7.10938C25.1621 12.1469 23.0903 21.3637 14.3406 25.5531C13.4926 25.9594 12.5074 25.9594 11.6594 25.5531C2.90979 21.3637 0.837914 12.1469 0.812523 7.10938C0.807445 5.77891 1.64026 4.67695 2.75744 4.20469L12.3246 0.147266C12.5328 0.0507813 12.7664 0 13 0ZM13 3.39219V22.5875C20.0078 19.1953 21.8918 11.6848 21.9375 7.18047L13 3.39219Z" fill="white"/>
</svg>
