<svg width="31" height="28" viewBox="0 0 31 28" fill="none" xmlns="http://www.w3.org/2000/svg">
<path d="M29.5349 5.67656L26.3516 0.716406C26.0683 0.273438 25.5627 0 25.0238 0H5.20161C4.66272 0 4.15717 0.273438 3.87384 0.716406L0.684947 5.67656C-0.959498 8.23594 0.496058 11.7961 3.56828 12.2063C3.7905 12.2336 4.01828 12.25 4.2405 12.25C5.6905 12.25 6.97939 11.6266 7.86272 10.6641C8.74606 11.6266 10.0349 12.25 11.4849 12.25C12.9349 12.25 14.2238 11.6266 15.1072 10.6641C15.9905 11.6266 17.2794 12.25 18.7294 12.25C20.1849 12.25 21.4683 11.6266 22.3516 10.6641C23.2405 11.6266 24.5238 12.25 25.9738 12.25C26.2016 12.25 26.4238 12.2336 26.6461 12.2063C29.7294 11.8016 31.1905 8.24141 29.5405 5.67656H29.5349ZM26.8738 13.9398H26.8683C26.5738 13.9781 26.2738 14 25.9683 14C25.2794 14 24.6183 13.8961 24.0016 13.7102V21H6.22384V13.7047C5.60161 13.8961 4.93495 14 4.24606 14C3.9405 14 3.63495 13.9781 3.3405 13.9398H3.33495C3.10717 13.907 2.88495 13.8688 2.66828 13.8141V21V24.5C2.66828 26.4305 4.26272 28 6.22384 28H24.0016C25.9627 28 27.5572 26.4305 27.5572 24.5V21V13.8141C27.3349 13.8688 27.1127 13.9125 26.8738 13.9398Z" fill="white"/>
</svg>
